<svg width="40" height="40" viewBox="0 0 40 40" fill="none" xmlns="http://www.w3.org/2000/svg">
<g clip-path="url(#clip0_0_1670)">
<path d="M23.5086 0L23.8001 1.16486L23.9874 1.91707C24.5267 2.03553 25.0604 2.17825 25.5869 2.34475L26.9611 0.925481L33.0389 4.43409L32.494 6.33714C32.9004 6.70897 33.29 7.09863 33.6619 7.50501L34.4111 7.29167L35.5659 6.96114L39.0745 13.0389L37.6542 14.4121C37.8206 14.9382 37.9625 15.4717 38.0809 16.0106L40 16.4904V23.5086L38.8341 23.8001L38.0809 23.9874C37.9624 24.5268 37.8198 25.0604 37.6532 25.5869L39.0745 26.9611L35.5659 33.0389L33.6619 32.494C33.29 32.9004 32.8994 33.289 32.493 33.6609L33.0389 35.5659L26.9611 39.0755L25.5869 37.6532C25.0604 37.8198 24.5268 37.9625 23.9874 38.0809L23.8001 38.8351L23.5086 40H16.4904L16.0106 38.0809C15.4716 37.9625 14.9383 37.8197 14.4121 37.6532L13.8742 38.2111L13.0389 39.0755L6.96114 35.5659L7.29167 34.4111L7.50501 33.6619C7.09864 33.29 6.70896 32.9004 6.33714 32.494L4.43409 33.0389L0.924479 26.9611L1.78886 26.1268L2.34575 25.5869C2.17922 25.0603 2.03555 24.5268 1.91707 23.9874L1.16486 23.8001L0 23.5086V16.4904L1.91807 16.0106C2.0365 15.4717 2.17837 14.9382 2.34475 14.4121L0.924479 13.0389L4.43409 6.96114L6.33714 7.50501C6.70912 7.09846 7.09846 6.70811 7.50501 6.33614L6.96114 4.43409L13.0389 0.925481L14.4121 2.34475C14.9383 2.17834 15.4716 2.0355 16.0106 1.91707L16.4904 0H23.5086ZM18.758 3.61579L18.5126 4.60036L17.511 4.76162C16.4939 4.92622 15.4958 5.19289 14.5323 5.55789L13.5857 5.91747L12.496 4.79067L10.5799 5.89744L11.0116 7.40585L10.2284 8.04688C9.4306 8.69997 8.69993 9.43157 8.04688 10.2294L7.40585 11.0116L5.89643 10.5789L4.78966 12.496L5.1893 12.8816L5.91747 13.5857L5.55789 14.5323C5.19295 15.4957 4.9262 16.494 4.76162 17.511L4.60036 18.5126L3.07692 18.8922V21.1058L4.60036 21.4864L4.76162 22.488C4.92621 23.5052 5.19385 24.5031 5.55889 25.4667L5.91747 26.4143L5.1893 27.1184L4.78966 27.503L5.89643 29.4191L7.40685 28.9884L8.04788 29.7706C8.70093 30.5683 9.43163 31.2991 10.2294 31.9521L11.0116 32.5932L10.7342 33.5657L10.5799 34.1026L12.496 35.2093L12.8826 34.8107L13.5857 34.0825L14.5333 34.4411C15.4966 34.806 16.4942 35.0728 17.511 35.2374L18.5116 35.3996L18.8932 36.9231H21.1058L21.4864 35.3996L22.488 35.2374C23.5052 35.0728 24.5032 34.8061 25.4667 34.4411L26.4133 34.0825L27.503 35.2093L29.4191 34.1026L28.9874 32.5932L29.7706 31.9521C30.5683 31.2991 31.2991 30.5683 31.9521 29.7706L32.5932 28.9884L34.1016 29.4191L35.2083 27.503L34.0825 26.4143L34.4411 25.4667C34.8061 24.5031 35.0728 23.5052 35.2374 22.488L35.3996 21.4864L36.9231 21.1058V18.8922L35.3996 18.5126L35.2374 17.511C35.0728 16.494 34.806 15.4957 34.4411 14.5323L34.0825 13.5857L34.8107 12.8816L35.2083 12.496L34.1016 10.5799L32.5932 11.0116L31.9521 10.2294C31.299 9.43156 30.5684 8.69998 29.7706 8.04688L28.9884 7.40585L29.2668 6.43329L29.4191 5.89744L27.503 4.79067L27.1184 5.1893L26.4143 5.91747L25.4678 5.55789C24.5039 5.19277 23.5054 4.92623 22.488 4.76162L21.4864 4.59936L21.241 3.61579L21.1058 3.07692H18.8932L18.758 3.61579Z" fill="#2563EB"/>
<path d="M30.3238 16.8023L18.4869 28.6392L9.6768 19.8291L15.1185 14.3864L18.4869 17.7548L24.8811 11.3606L30.3238 16.8023ZM18.4869 22.1068L15.1185 18.7384L14.0278 19.8281L18.4869 24.2873L25.9719 16.8023L24.8811 15.7115L18.4869 22.1068Z" fill="#2563EB"/>
</g>
<defs>
<clipPath id="clip0_0_1670">
<rect width="40" height="40" fill="white"/>
</clipPath>
</defs>
</svg>
