<svg width="40" height="40" viewBox="0 0 40 40" fill="none" xmlns="http://www.w3.org/2000/svg">
<g clip-path="url(#clip0_0_1660)">
<path d="M18.4375 17.9688H21.5625V21.0938H18.4375V17.9688Z" fill="#2563EB"/>
<path d="M35.3125 3.125H33.4375V0H30.3125V3.125H9.6875V0H6.5625V3.125H4.6875C2.10281 3.125 0 5.22781 0 7.8125V35.3125C0 37.8972 2.10281 40 4.6875 40H20.7627C19.6802 39.1063 18.7406 38.0525 17.9765 36.875H4.6875C3.82594 36.875 3.125 36.1741 3.125 35.3125V14.6875H36.875V17.9765C38.0525 18.7406 39.1063 19.6802 40 20.7627V7.8125C40 5.22781 37.8972 3.125 35.3125 3.125ZM36.875 11.5625H3.125V7.8125C3.125 6.95094 3.82594 6.25 4.6875 6.25H6.5625V9.375H9.6875V6.25H30.3125V9.375H33.4375V6.25H35.3125C36.1741 6.25 36.875 6.95094 36.875 7.8125V11.5625Z" fill="#2563EB"/>
<path d="M29.4531 18.9062C23.6376 18.9062 18.9062 23.6376 18.9062 29.4531C18.9062 35.2687 23.6376 40 29.4531 40C35.2687 40 40 35.2687 40 29.4531C40 23.6376 35.2687 18.9062 29.4531 18.9062ZM29.4531 36.875C25.3607 36.875 22.0312 33.5455 22.0312 29.4531C22.0312 25.3607 25.3607 22.0312 29.4531 22.0312C33.5455 22.0312 36.875 25.3607 36.875 29.4531C36.875 33.5455 33.5455 36.875 29.4531 36.875Z" fill="#2563EB"/>
<path d="M30.9375 24.2188H27.8125V31.0156H33.5938V27.8906H30.9375V24.2188ZM12.1875 24.2188H15.3125V27.3438H12.1875V24.2188ZM5.9375 24.2188H9.0625V27.3438H5.9375V24.2188ZM5.9375 17.9688H9.0625V21.0938H5.9375V17.9688ZM5.9375 30.4688H9.0625V33.5938H5.9375V30.4688ZM12.1875 17.9688H15.3125V21.0938H12.1875V17.9688ZM12.1875 30.4688H15.3125V33.5938H12.1875V30.4688Z" fill="#2563EB"/>
</g>
<defs>
<clipPath id="clip0_0_1660">
<rect width="40" height="40" fill="white"/>
</clipPath>
</defs>
</svg>
