<svg width="20" height="20" viewBox="0 0 20 20" fill="none" xmlns="http://www.w3.org/2000/svg">
<path d="M16.9121 9.02408L10.4001 15.5761C9.83978 16.1558 9.17034 16.619 8.43029 16.9389C7.69025 17.2588 6.89422 17.4291 6.08806 17.4401C5.50925 17.4515 4.93394 17.3478 4.39557 17.1349C3.8572 16.922 3.36653 16.6043 2.95206 16.2001C1.08006 14.3281 1.35206 11.0001 3.57606 8.79208L9.84006 2.63208C9.91238 2.54888 10.0011 2.48153 10.1007 2.43425C10.2003 2.38697 10.3086 2.36078 10.4187 2.35733C10.5289 2.35387 10.6386 2.37322 10.741 2.41417C10.8433 2.45512 10.9361 2.51678 11.0135 2.59527C11.0909 2.67377 11.1512 2.76742 11.1907 2.87034C11.2302 2.97326 11.248 3.08323 11.243 3.19335C11.238 3.30347 11.2102 3.41137 11.1616 3.51027C11.1129 3.60917 11.0443 3.69694 10.9601 3.76808L4.70406 9.92808C3.10406 11.5281 2.83206 13.8161 4.08006 15.0641C5.32806 16.3121 7.64006 16.0401 9.23206 14.4481L15.7841 7.89608C16.2799 7.413 16.596 6.77518 16.6801 6.08808C16.7177 5.8261 16.6955 5.55899 16.6152 5.30682C16.5348 5.05465 16.3984 4.82396 16.2161 4.63208C15.4161 3.83208 13.9761 4.04808 12.9601 5.06408L6.40006 11.6161C6.17941 11.8303 6.03594 12.1117 5.99206 12.4161C5.96906 12.5153 5.97169 12.6188 5.99973 12.7167C6.02776 12.8146 6.08027 12.9038 6.1523 12.9758C6.22433 13.0479 6.31351 13.1004 6.41144 13.1284C6.50937 13.1564 6.61283 13.1591 6.71206 13.1361C7.01648 13.0922 7.29779 12.9487 7.51206 12.7281L14.4001 5.84808C14.4747 5.77348 14.5632 5.71432 14.6607 5.67395C14.7581 5.63358 14.8626 5.6128 14.9681 5.6128C15.0735 5.6128 15.178 5.63358 15.2755 5.67395C15.3729 5.71432 15.4615 5.77348 15.5361 5.84808C15.6107 5.92267 15.6698 6.01122 15.7102 6.10868C15.7506 6.20613 15.7713 6.31059 15.7713 6.41608C15.7713 6.52156 15.7506 6.62602 15.7102 6.72347C15.6698 6.82093 15.6107 6.90948 15.5361 6.98408L8.63206 13.8801C8.15269 14.3681 7.51986 14.676 6.84006 14.7521C6.50733 14.7915 6.17 14.7544 5.85379 14.6436C5.53758 14.5328 5.25086 14.3513 5.01549 14.1128C4.78012 13.8744 4.60232 13.5853 4.49566 13.2677C4.38901 12.95 4.35631 12.6123 4.40006 12.2801C4.47225 11.5992 4.7808 10.9651 5.27206 10.4881L11.8241 3.93608C13.4721 2.28808 15.9441 2.09608 17.3521 3.49608C18.7601 4.89608 18.5601 7.38408 16.9121 9.02408Z" fill="#2563EB"/>
</svg>
