<svg width="18" height="18" viewBox="0 0 18 18" fill="none" xmlns="http://www.w3.org/2000/svg">
<path fill-rule="evenodd" clip-rule="evenodd" d="M3.09375 7.8C3.09375 6.24848 3.71601 4.76051 4.82365 3.66343C5.93129 2.56634 7.43357 1.95 9 1.95C10.5664 1.95 12.0687 2.56634 13.1763 3.66343C14.284 4.76051 14.9062 6.24848 14.9062 7.8C14.9062 10.0368 13.9685 11.3544 12.8624 12.378C12.3959 12.81 11.9356 13.158 11.4449 13.5276L11.0027 13.8636C10.6721 14.1127 10.3562 14.3804 10.0565 14.6652C9.76206 14.9532 9.40829 15.3552 9.17204 15.8772C9.14717 15.9384 9.10768 15.9928 9.05694 16.0356L9.03877 16.0452C9.03877 16.0452 9.02665 16.05 9 16.05L8.96123 16.0464L8.94306 16.0356C8.89248 15.9931 8.85299 15.9392 8.82796 15.8784C8.61106 15.4239 8.31122 15.013 7.94354 14.6664C7.64381 14.3816 7.32789 14.1139 6.99733 13.8648C6.84629 13.7488 6.69848 13.6368 6.5539 13.5288C6.06255 13.1686 5.58985 12.7841 5.13762 12.3768C4.03269 11.3556 3.09375 10.038 3.09375 7.8ZM16.875 7.8C16.875 11.88 14.372 13.77 12.5983 15.1092C11.8302 15.6912 11.1977 16.1676 10.9688 16.6752C10.6416 17.4 9.95469 18 9 18C8.04531 18 7.35958 17.4 7.03125 16.6752C6.80106 16.1676 6.17106 15.6912 5.40052 15.1092C3.62804 13.77 1.125 11.8788 1.125 7.8C1.125 5.73131 1.95469 3.74735 3.43153 2.28457C4.90838 0.821783 6.91142 0 9 0C11.0886 0 13.0916 0.821783 14.5685 2.28457C16.0453 3.74735 16.875 5.73131 16.875 7.8ZM10.8173 7.8C10.8173 8.27739 10.6258 8.73523 10.285 9.07279C9.94422 9.41036 9.48198 9.6 9 9.6C8.51802 9.6 8.05578 9.41036 7.71497 9.07279C7.37416 8.73523 7.18269 8.27739 7.18269 7.8C7.18269 7.32261 7.37416 6.86477 7.71497 6.52721C8.05578 6.18964 8.51802 6 9 6C9.48198 6 9.94422 6.18964 10.285 6.52721C10.6258 6.86477 10.8173 7.32261 10.8173 7.8ZM12.6346 7.8C12.6346 8.75478 12.2517 9.67045 11.5701 10.3456C10.8884 11.0207 9.96396 11.4 9 11.4C8.03604 11.4 7.11156 11.0207 6.42994 10.3456C5.74832 9.67045 5.36538 8.75478 5.36538 7.8C5.36538 6.84522 5.74832 5.92955 6.42994 5.25442C7.11156 4.57929 8.03604 4.2 9 4.2C9.96396 4.2 10.8884 4.57929 11.5701 5.25442C12.2517 5.92955 12.6346 6.84522 12.6346 7.8Z" fill="#2563EB"/>
</svg>
