<svg width="18" height="18" viewBox="0 0 18 18" fill="none" xmlns="http://www.w3.org/2000/svg">
<path d="M16.875 2.375C17.4273 2.375 17.875 2.82272 17.875 3.375V15.75C17.875 16.3023 17.4273 16.75 16.875 16.75H1.125C0.572715 16.75 0.125 16.3023 0.125 15.75V3.375C0.125 2.82272 0.572715 2.375 1.125 2.375H16.875ZM2.125 14.75H15.875V4.375H2.125V14.75Z" fill="#2563EB"/>
<path d="M16.2939 3.68652C16.7434 3.36551 17.3675 3.46953 17.6885 3.91895C18.0095 4.36836 17.9055 4.99247 17.4561 5.31348L9.58105 10.9385C9.23336 11.1868 8.76664 11.1868 8.41895 10.9385L0.543945 5.31348C0.0945327 4.99247 -0.00948553 4.36836 0.311523 3.91895C0.632532 3.46953 1.25664 3.36551 1.70605 3.68652L9 8.89648L16.2939 3.68652Z" fill="#2563EB"/>
</svg>
