<svg width="20" height="20" viewBox="0 0 20 20" fill="none" xmlns="http://www.w3.org/2000/svg">
<path fill-rule="evenodd" clip-rule="evenodd" d="M3.4375 8.66667C3.4375 6.94276 4.1289 5.28946 5.35961 4.07047C6.59032 2.85149 8.25952 2.16667 10 2.16667C11.7405 2.16667 13.4097 2.85149 14.6404 4.07047C15.8711 5.28946 16.5625 6.94276 16.5625 8.66667C16.5625 11.152 15.5206 12.616 14.2915 13.7533C13.7733 14.2333 13.2617 14.62 12.7165 15.0307L12.2252 15.404C11.8579 15.6808 11.5069 15.9782 11.1738 16.2947C10.8467 16.6147 10.4537 17.0613 10.1912 17.6413C10.1635 17.7094 10.1196 17.7698 10.0633 17.8173L10.0431 17.828C10.0431 17.828 10.0296 17.8333 10 17.8333L9.95692 17.8293L9.93673 17.8173C9.88053 17.7702 9.83666 17.7102 9.80885 17.6427C9.56784 17.1376 9.23469 16.6811 8.82615 16.296C8.49312 15.9795 8.1421 15.6821 7.77481 15.4053C7.60699 15.2764 7.44276 15.152 7.28212 15.032C6.73616 14.6318 6.21094 14.2046 5.70846 13.752C4.48077 12.6173 3.4375 11.1533 3.4375 8.66667ZM18.75 8.66667C18.75 13.2 15.9688 15.3 13.9981 16.788C13.1446 17.4347 12.4419 17.964 12.1875 18.528C11.824 19.3333 11.0608 20 10 20C8.93923 20 8.17731 19.3333 7.8125 18.528C7.55673 17.964 6.85673 17.4347 6.00058 16.788C4.03115 15.3 1.25 13.1987 1.25 8.66667C1.25 6.36812 2.17187 4.16372 3.81282 2.53841C5.45376 0.913093 7.67936 0 10 0C12.3206 0 14.5462 0.913093 16.1872 2.53841C17.8281 4.16372 18.75 6.36812 18.75 8.66667ZM12.0192 8.66667C12.0192 9.1971 11.8065 9.70581 11.4278 10.0809C11.0491 10.456 10.5355 10.6667 10 10.6667C9.46447 10.6667 8.95087 10.456 8.57219 10.0809C8.19351 9.70581 7.98077 9.1971 7.98077 8.66667C7.98077 8.13623 8.19351 7.62753 8.57219 7.25245C8.95087 6.87738 9.46447 6.66667 10 6.66667C10.5355 6.66667 11.0491 6.87738 11.4278 7.25245C11.8065 7.62753 12.0192 8.13623 12.0192 8.66667ZM14.0385 8.66667C14.0385 9.72753 13.613 10.7449 12.8556 11.4951C12.0983 12.2452 11.0711 12.6667 10 12.6667C8.92893 12.6667 7.90174 12.2452 7.14438 11.4951C6.38702 10.7449 5.96154 9.72753 5.96154 8.66667C5.96154 7.6058 6.38702 6.58839 7.14438 5.83824C7.90174 5.08809 8.92893 4.66667 10 4.66667C11.0711 4.66667 12.0983 5.08809 12.8556 5.83824C13.613 6.58839 14.0385 7.6058 14.0385 8.66667Z" fill="white"/>
</svg>
