<svg width="11" height="17" viewBox="0 0 11 17" fill="none" xmlns="http://www.w3.org/2000/svg">
<path d="M9.92823 10.3446C10.3218 9.95108 10.378 9.38887 10.0407 8.82666C9.75957 8.3769 9.25359 8.15201 8.69138 8.26446C8.4665 8.32068 8.24161 8.43312 8.01672 8.60178C6.27388 9.78242 3.91261 9.7262 2.16977 8.54556C2.05733 8.48934 1.94488 8.43312 1.83244 8.3769C1.21401 8.09579 0.595591 8.20824 0.258267 8.77045C-0.135278 9.33266 -0.0790645 9.95108 0.426922 10.4571C0.539364 10.5695 0.651805 10.6257 0.708026 10.7382L0.76425 10.7944C1.55134 11.4128 2.5071 11.8064 3.74395 11.975L3.01308 12.7059C2.39465 13.3243 1.72001 13.999 1.10158 14.6174C0.932916 14.7861 0.708026 15.0672 0.708026 15.4607C0.708026 15.9667 0.989135 16.4727 1.49512 16.6976C1.66378 16.81 1.83244 16.81 2.00111 16.81C2.28221 16.81 2.61953 16.6976 2.84442 16.4165C3.68773 15.5732 4.36238 14.8985 5.03703 14.2239C5.09325 14.1676 5.09325 14.1676 5.09325 14.1676C5.09325 14.1676 5.14947 14.1676 5.14947 14.2239C5.59924 14.7298 6.10522 15.1796 6.55499 15.6856C6.77987 15.9105 7.00475 16.1354 7.22964 16.3602C7.51074 16.6414 7.73562 16.7538 8.07295 16.7538C8.57894 16.81 9.14114 16.4727 9.36603 15.9667C9.59091 15.5169 9.47847 14.9547 9.08492 14.6174C8.52272 14.0552 7.96051 13.4368 7.34208 12.8746L6.38633 11.9188C6.89231 11.8626 7.45452 11.7501 7.96051 11.5253C8.80382 11.2442 9.42225 10.8506 9.92823 10.3446Z" fill="white"/>
<path d="M5.09325 8.77044C7.51074 8.77044 9.47847 6.85893 9.47847 4.44144C9.47847 3.2608 9.0287 2.13639 8.18539 1.29308C7.34208 0.449768 6.27389 0 5.14947 0C2.73198 0 0.82047 1.96772 0.76425 4.329C0.76425 5.50963 1.21402 6.57783 2.05733 7.42114C2.84442 8.32067 3.91261 8.77044 5.09325 8.77044ZM3.85639 3.14837C4.19372 2.81104 4.64348 2.64237 5.09325 2.64237C6.10522 2.64237 6.83609 3.42947 6.83609 4.38522C6.83609 5.39719 6.049 6.12806 5.09325 6.12806C4.08127 6.12806 3.35041 5.34097 3.35041 4.38522C3.35041 3.93545 3.51907 3.48569 3.85639 3.14837Z" fill="white"/>
<path d="M9.92823 10.3446C10.3218 9.95108 10.378 9.38887 10.0407 8.82666C9.75957 8.3769 9.25359 8.15201 8.69138 8.26446C8.4665 8.32068 8.24161 8.43312 8.01672 8.60178C6.27388 9.78242 3.91261 9.7262 2.16977 8.54556C2.05733 8.48934 1.94488 8.43312 1.83244 8.3769C1.21401 8.09579 0.595591 8.20824 0.258267 8.77045C-0.135278 9.33266 -0.0790645 9.95108 0.426922 10.4571C0.539364 10.5695 0.651805 10.6257 0.708026 10.7382L0.76425 10.7944C1.55134 11.4128 2.5071 11.8064 3.74395 11.975L3.01308 12.7059C2.39465 13.3243 1.72001 13.999 1.10158 14.6174C0.932916 14.7861 0.708026 15.0672 0.708026 15.4607C0.708026 15.9667 0.989135 16.4727 1.49512 16.6976C1.66378 16.81 1.83244 16.81 2.00111 16.81C2.28221 16.81 2.61953 16.6976 2.84442 16.4165C3.68773 15.5732 4.36238 14.8985 5.03703 14.2239C5.09325 14.1676 5.09325 14.1676 5.09325 14.1676C5.09325 14.1676 5.14947 14.1676 5.14947 14.2239C5.59924 14.7298 6.10522 15.1796 6.55499 15.6856C6.77987 15.9105 7.00475 16.1354 7.22964 16.3602C7.51074 16.6414 7.73562 16.7538 8.07295 16.7538C8.57894 16.81 9.14114 16.4727 9.36603 15.9667C9.59091 15.5169 9.47847 14.9547 9.08492 14.6174C8.52272 14.0552 7.96051 13.4368 7.34208 12.8746L6.38633 11.9188C6.89231 11.8626 7.45452 11.7501 7.96051 11.5253C8.80382 11.2442 9.42225 10.8506 9.92823 10.3446Z" fill="white"/>
</svg>
