<svg width="40" height="40" viewBox="0 0 40 40" fill="none" xmlns="http://www.w3.org/2000/svg">
<g clip-path="url(#clip0_0_1684)">
<path d="M29.3389 25.5657C30.8386 27.0668 30.8376 29.4996 29.3369 31.0002C28.0031 32.3341 25.9335 32.4813 24.4355 31.4446C24.278 31.7052 24.0882 31.952 23.8633 32.177C22.3622 33.6781 19.9278 33.6782 18.4268 32.177L15.4814 29.2317L17.6025 27.1096L20.5479 30.0559C20.8772 30.385 21.4117 30.3852 21.7412 30.0559C22.0707 29.7265 22.0708 29.1921 21.7412 28.8625L17.5801 24.7014L19.7129 22.5686L26.0225 28.8791L26.0859 28.9368C26.4173 29.2072 26.9068 29.1882 27.2158 28.8791C27.5452 28.5498 27.5451 28.0153 27.2158 27.6858L27.2139 27.6838L20.915 21.3635L23.04 19.2453L29.3389 25.5657ZM40.3281 7.36156V29.4241H32.6406V7.36156H40.3281ZM35.6406 26.4241H37.3281V10.3616H35.6406V26.4241ZM13.7285 9.15843V12.1584H6.01562V9.15843H13.7285Z" fill="#2563EB"/>
<path d="M8.01465 24.1077L14.627 30.7191C14.9564 31.0485 15.4898 31.0486 15.8193 30.7191C16.1488 30.3897 16.1488 29.8562 15.8193 29.5267L15.5029 29.2093L17.624 27.0882L17.9414 27.4046C19.4424 28.9057 19.4426 31.3401 17.9414 32.8411C16.4404 34.3422 14.0059 34.3422 12.5049 32.8411L6.77246 27.1077H5.70312V24.1077H8.01465ZM26.166 6.03351L26.5889 6.40265L31.0088 10.2523H33.5723V13.2523H29.8857L29.4629 12.8831L25.043 9.03351H17.4307L13.1855 13.6175C14.8141 14.3928 16.7918 14.2173 18.2754 13.0511L18.3496 12.9925L18.7568 12.6722H23.0957L34.5146 24.0911C36.0158 25.5922 36.0157 28.0266 34.5146 29.5276C33.0137 31.0284 30.5801 31.0283 29.0791 29.5276L20.917 21.3646L23.0381 19.2435L31.2002 27.4056C31.5297 27.7351 32.0641 27.735 32.3936 27.4056C32.7228 27.0761 32.7227 26.5426 32.3936 26.2132L21.8535 15.6722H19.7725C16.7417 17.7921 12.6114 17.5166 9.88867 14.9544L8.80469 13.9339L16.1201 6.03351H26.166Z" fill="#2563EB"/>
<path d="M7.35938 7.36156V29.4241H-0.328125V7.36156H7.35938ZM2.67188 26.4241H4.35938V10.3616H2.67188V26.4241Z" fill="#2563EB"/>
</g>
<defs>
<clipPath id="clip0_0_1684">
<rect width="40" height="40" fill="white"/>
</clipPath>
</defs>
</svg>
