<svg width="18" height="18" viewBox="0 0 18 18" fill="none" xmlns="http://www.w3.org/2000/svg">
<g clip-path="url(#clip0_0_1739)">
<path d="M6.71383 4.52637C6.71383 4.30721 6.62691 4.09695 6.47214 3.9419L5.09555 2.56201C5.07281 2.53924 5.05033 2.51524 5.02963 2.4906C4.96637 2.41541 4.88795 2.35415 4.79892 2.31262C4.70965 2.27103 4.61174 2.25 4.51327 2.25C4.41502 2.25001 4.31783 2.2712 4.22873 2.31262C4.13956 2.35417 4.06024 2.4153 3.99692 2.4906C3.97516 2.5165 3.95171 2.54147 3.9277 2.56531C2.3734 4.10872 2.02952 5.66162 2.36984 7.20813C2.73065 8.84745 3.8937 10.6082 5.63937 12.3541C7.38546 14.1004 9.14646 15.2648 10.7865 15.6281C12.3338 15.9707 13.8868 15.63 15.4326 14.0823L15.5073 14.0131C15.5831 13.9497 15.6445 13.8708 15.6864 13.7813C15.7282 13.6918 15.7501 13.5944 15.7501 13.4956C15.7501 13.3967 15.7282 13.2984 15.6864 13.2089C15.6434 13.1171 15.5821 13.0387 15.5084 12.9771C15.4829 12.9558 15.4583 12.9335 15.4348 12.91L14.0549 11.5302C13.9003 11.3756 13.6901 11.2885 13.4715 11.2885C13.2531 11.2885 13.0438 11.3757 12.8892 11.5302L12.1993 12.219C11.9142 12.5047 11.5756 12.7311 11.2028 12.8859C10.8298 13.0407 10.4301 13.1209 10.0262 13.121C9.62215 13.121 9.22166 13.0408 8.84848 12.8859C8.47537 12.731 8.13617 12.504 7.85092 12.2179L5.78439 10.1492C5.20828 9.57222 4.88461 8.78921 4.88461 7.97388C4.88475 7.15878 5.20736 6.3765 5.78329 5.79968L6.47214 5.11084L6.57541 4.9845C6.66513 4.84979 6.71375 4.69063 6.71383 4.52637ZM8.96383 4.52637C8.96372 5.34147 8.63997 6.12263 8.06405 6.69946L7.37631 7.38941C7.2216 7.54434 7.13475 7.75487 7.13461 7.97388C7.13461 8.19301 7.22156 8.4033 7.37631 8.55835L9.44394 10.6293C9.5202 10.7058 9.61117 10.7669 9.71091 10.8084C9.81068 10.8498 9.91819 10.871 10.0262 10.871C10.134 10.8709 10.2408 10.8497 10.3404 10.8084C10.4402 10.7669 10.5311 10.7058 10.6074 10.6293L11.2984 9.93933C11.8749 9.36332 12.6566 9.03848 13.4715 9.03845C14.2865 9.03845 15.0681 9.36227 15.6446 9.93823L17.0058 11.2983C17.3106 11.5661 17.5542 11.8925 17.7243 12.2563C17.9057 12.6443 18.0001 13.0674 18.0001 13.4956C18.0001 13.9238 17.9057 14.347 17.7243 14.7349C17.5501 15.1074 17.2979 15.4372 16.9872 15.7061C14.9353 17.7407 12.6235 18.3399 10.2998 17.8253C8.05492 17.3281 5.92604 15.8227 4.04855 13.9449C2.17103 12.0672 0.666784 9.93723 0.172575 7.69153C-0.339471 5.36466 0.265434 3.05005 2.31161 1.00085C2.57969 0.694083 2.90875 0.445809 3.27841 0.27356C3.66516 0.0934116 4.08662 1.32993e-05 4.51327 0C4.94009 0 5.36236 0.09329 5.74924 0.27356C6.11588 0.444471 6.44149 0.690874 6.70834 0.994263L8.06515 2.35217C8.6409 2.92907 8.96383 3.71131 8.96383 4.52637Z" fill="#2563EB"/>
</g>
<defs>
<clipPath id="clip0_0_1739">
<rect width="18" height="18" fill="white"/>
</clipPath>
</defs>
</svg>
