<svg width="40" height="40" viewBox="0 0 40 40" fill="none" xmlns="http://www.w3.org/2000/svg">
<g clip-path="url(#clip0_0_1677)">
<path d="M21.8504 31.6192L17.6756 35.795L14.4764 32.5958L16.5975 30.4747L17.6746 31.5508L19.7293 29.4981L21.8504 31.6192ZM35.4686 31.6319V34.6319H23.8426V31.6319H35.4686ZM21.8504 24.878L17.6756 29.0528L14.4764 25.8546L16.5975 23.7335L17.6746 24.8096L19.7293 22.7569L21.8504 24.878ZM35.4686 24.8907V27.8907H23.8426V24.8907H35.4686ZM21.8504 18.1368L17.6756 22.3116L14.4764 19.1133L16.5975 16.9913L17.6746 18.0684L19.7293 16.0157L21.8504 18.1368ZM35.4686 18.1485V21.1485H23.8426V18.1485H35.4686ZM21.8504 11.3956L17.6756 15.5704L14.4764 12.3721L16.5975 10.2501L17.6746 11.3272L19.7293 9.27448L21.8504 11.3956ZM35.4686 11.4073V14.4073H23.8426V11.4073H35.4686ZM33.577 -0.328064V7.35944H16.7039V-0.328064H33.577ZM19.7039 4.35944H30.577V2.67194H19.7039V4.35944Z" fill="#2563EB"/>
<path d="M18.2041 2.01584V5.01584H12.9531V37.3283H37.3281V5.01584H32.0771V2.01584H40.3281V40.3283H9.95312V2.01584H18.2041ZM7.35938 6.70334V33.758L3.51562 38.1408L-0.328125 33.758V6.70334H7.35938ZM2.67188 32.6281L3.51562 33.5901L4.35938 32.6281V31.5715H2.67188V32.6281ZM2.67188 28.5715H4.35938V14.3908H2.67188V28.5715ZM2.67188 11.3908H4.35938V9.70334H2.67188V11.3908Z" fill="#2563EB"/>
</g>
<defs>
<clipPath id="clip0_0_1677">
<rect width="40" height="40" fill="white"/>
</clipPath>
</defs>
</svg>
