<svg width="16" height="14" viewBox="0 0 16 14" fill="none" xmlns="http://www.w3.org/2000/svg">
<path d="M0.276177 6.47989L3.89718 7.80661L5.30874 12.2692C5.37012 12.5707 5.73836 12.631 5.98385 12.4501L8.00914 10.8219C8.19326 10.641 8.50013 10.641 8.74562 10.8219L12.3666 13.415C12.6121 13.5959 12.9803 13.4753 13.0417 13.1738L15.7421 0.50967C15.8035 0.208144 15.4966 -0.09338 15.1897 0.0272306L0.276177 5.69593C-0.092059 5.81654 -0.092059 6.35928 0.276177 6.47989ZM5.12463 7.14325L12.2438 2.86158C12.3666 2.80127 12.4893 2.98219 12.3666 3.04249L6.5362 8.40966C6.35208 8.59058 6.16796 8.8318 6.16796 9.13332L5.98385 10.5807C5.98385 10.7616 5.67698 10.8219 5.61561 10.5807L4.87913 7.92722C4.69501 7.62569 4.81777 7.26386 5.12463 7.14325Z" fill="white"/>
</svg>
