<svg width="17" height="10" viewBox="0 0 17 10" fill="none" xmlns="http://www.w3.org/2000/svg">
<path d="M16.3467 8.74829C16.3467 8.68151 16.2811 8.68151 16.2811 8.61473C16.0185 8.08048 15.4276 7.41268 14.6398 6.67809C14.2459 6.34418 14.049 6.07705 13.9177 5.94349C13.7207 5.67637 13.7208 5.47603 13.7864 5.20891C13.8521 5.00857 14.1146 4.67465 14.5742 4.07363C14.8368 3.73972 14.9681 3.53939 15.165 3.33904C16.1498 2.00343 16.6093 1.13527 16.478 0.734583L16.4124 0.667809C16.3467 0.601028 16.2811 0.534249 16.1498 0.534249C16.0185 0.467468 15.8215 0.467468 15.6246 0.534249H13.1299C13.0643 0.534249 13.0643 0.534249 12.933 0.534249C12.8673 0.534249 12.8017 0.534249 12.8017 0.534249H12.736H12.6704L12.6047 0.601024C12.5391 0.667805 12.5391 0.667803 12.5391 0.734583C12.2765 1.46917 11.9482 2.0702 11.62 2.73801C11.423 3.07191 11.2261 3.40582 11.0291 3.67295C10.8322 3.94007 10.7009 4.14041 10.5696 4.27397C10.4383 4.40753 10.307 4.47431 10.2413 4.60788C10.1757 4.67466 10.0444 4.74144 10.0444 4.67466C9.97873 4.67466 9.91307 4.67466 9.91307 4.60788C9.84742 4.54109 9.78178 4.47431 9.71613 4.40753C9.65048 4.34075 9.65047 4.20719 9.58482 4.07363C9.58482 3.94006 9.58482 3.8065 9.58482 3.73972C9.58482 3.67294 9.58482 3.4726 9.58482 3.33904C9.58482 3.1387 9.58482 3.00513 9.58482 2.93835C9.58482 2.73801 9.58482 2.47089 9.58482 2.20377C9.58482 1.93665 9.58482 1.7363 9.58482 1.60274C9.58482 1.46917 9.58482 1.26883 9.58482 1.13527C9.58482 0.93493 9.58482 0.801364 9.58482 0.734583C9.58482 0.667803 9.51919 0.534245 9.51919 0.467464C9.45354 0.400683 9.38788 0.3339 9.32223 0.267119C9.25658 0.200339 9.12529 0.200341 9.05964 0.13356C8.73139 0.0667788 8.3375 0 7.87795 0C6.82756 0 6.10541 0.0667829 5.84281 0.200345C5.71151 0.267125 5.58022 0.333902 5.51457 0.467464C5.38327 0.601026 5.38326 0.667809 5.44891 0.667809C5.77716 0.73459 6.03976 0.868145 6.17106 1.06849L6.23672 1.20206C6.30236 1.26884 6.30235 1.40239 6.368 1.60274C6.43365 1.80308 6.43366 2.00342 6.43366 2.27055C6.43366 2.67123 6.43366 3.07192 6.43366 3.33904C6.43366 3.67295 6.368 3.87328 6.368 4.07363C6.368 4.27397 6.30236 4.40754 6.23672 4.47432C6.17107 4.60788 6.17106 4.67466 6.10541 4.67466C6.10541 4.67466 6.1054 4.74144 6.03975 4.74144C5.9741 4.74144 5.90846 4.80822 5.77716 4.80822C5.71151 4.80822 5.58022 4.74144 5.51457 4.67466C5.38327 4.60788 5.25197 4.47432 5.18632 4.34076C5.05502 4.20719 4.92372 4.00685 4.79242 3.73972C4.66112 3.4726 4.46416 3.20548 4.33286 2.80479L4.20158 2.53767C4.13593 2.40411 4.00463 2.13699 3.87333 1.80308C3.74203 1.46918 3.61073 1.20206 3.47943 0.868153C3.41378 0.734592 3.34814 0.667805 3.28249 0.601024H3.21683C3.21683 0.601024 3.15118 0.534249 3.08553 0.534249C3.01988 0.534249 2.95423 0.467464 2.88859 0.467464H0.525198C0.2626 0.467464 0.131303 0.534243 0.0656535 0.601024L0 0.667809C0 0.667809 0 0.734587 0 0.801368C0 0.868149 4.00595e-06 0.934926 0.0656535 1.06849C0.393901 1.86986 0.787796 2.67123 1.18169 3.4726C1.57559 4.20719 1.96949 4.875 2.23209 5.34247C2.56034 5.80994 2.82293 6.2774 3.15118 6.67809C3.47943 7.07877 3.67637 7.34589 3.74202 7.47945C3.87332 7.61302 3.93897 7.67979 4.00462 7.74657L4.20158 7.94692C4.33287 8.08048 4.52982 8.28083 4.79242 8.48117C5.05502 8.68151 5.38326 8.88185 5.71151 9.08219C6.03975 9.28253 6.43366 9.4161 6.82756 9.54967C7.2871 9.68323 7.681 9.75001 8.07489 9.68323H9.05964C9.25659 9.68323 9.38789 9.61644 9.51919 9.48288L9.58482 9.4161C9.58482 9.34931 9.65048 9.34932 9.65048 9.28254C9.65048 9.21576 9.65048 9.14898 9.65048 9.01542C9.65048 8.74829 9.65048 8.54795 9.71613 8.34761C9.78178 8.14727 9.78179 8.01371 9.84744 7.88014C9.91309 7.74658 9.97873 7.6798 10.0444 7.61301C10.11 7.54623 10.1757 7.47945 10.1757 7.47945H10.2413C10.3726 7.41267 10.5696 7.47945 10.7009 7.61301C10.8978 7.74658 11.0948 7.94692 11.2261 8.14726C11.3574 8.34761 11.5543 8.54795 11.8169 8.81507C12.0795 9.0822 12.2765 9.28254 12.4078 9.34932L12.6047 9.48288C12.736 9.54966 12.8673 9.61644 13.0643 9.68323C13.2612 9.75001 13.3925 9.75 13.5238 9.75L15.7559 9.68323C15.9528 9.68323 16.1498 9.61645 16.2811 9.54967C16.4124 9.48289 16.478 9.4161 16.478 9.28254C16.478 9.21576 16.478 9.0822 16.478 9.01542C16.3467 8.88186 16.3467 8.81507 16.3467 8.74829Z" fill="white"/>
</svg>
