<svg width="16" height="16" viewBox="0 0 16 16" fill="none" xmlns="http://www.w3.org/2000/svg">
<path d="M13.4451 2.29687C11.9634 0.820312 9.9878 0 7.90244 0C3.56707 0 0.0548772 3.5 0.0548772 7.82031C0.0548772 9.1875 0.439024 10.5547 1.09756 11.7031L0 15.75L4.17073 14.6562C5.32317 15.2578 6.58536 15.5859 7.90244 15.5859C12.2378 15.5859 15.75 12.0859 15.75 7.76563C15.6951 5.74219 14.9268 3.77344 13.4451 2.29687ZM11.689 10.6094C11.5244 11.0469 10.7561 11.4844 10.372 11.5391C10.0427 11.5937 9.60366 11.5938 9.16463 11.4844C8.89024 11.375 8.5061 11.2656 8.06707 11.0469C6.09146 10.2266 4.82927 8.25781 4.71951 8.09375C4.60976 7.98437 3.89634 7.05469 3.89634 6.07031C3.89634 5.08594 4.39024 4.64844 4.55488 4.42969C4.71951 4.21094 4.93902 4.21094 5.10366 4.21094C5.21341 4.21094 5.37805 4.21094 5.4878 4.21094C5.59756 4.21094 5.76219 4.15625 5.92683 4.53906C6.09146 4.92187 6.47561 5.90625 6.53049 5.96094C6.58536 6.07031 6.58536 6.17969 6.53049 6.28906C6.47561 6.39844 6.42073 6.50781 6.31097 6.61719C6.20122 6.72656 6.09146 6.89062 6.03658 6.94531C5.92683 7.05469 5.81707 7.16406 5.92683 7.32812C6.03659 7.54687 6.42073 8.14844 7.02439 8.69531C7.79268 9.35156 8.39634 9.57031 8.61585 9.67969C8.83537 9.78906 8.94512 9.73437 9.05488 9.625C9.16463 9.51562 9.54878 9.07812 9.65854 8.85938C9.76829 8.64062 9.93293 8.69531 10.0976 8.75C10.2622 8.80469 11.25 9.29688 11.4146 9.40625C11.6341 9.51562 11.7439 9.57031 11.7988 9.625C11.8537 9.78906 11.8537 10.1719 11.689 10.6094Z" fill="white"/>
</svg>
